<svg xmlns="http://www.w3.org/2000/svg" viewBox="0 0 120 120" width="120" height="120">
  <defs>
    <linearGradient id="psdmkGrad" x1="0%" y1="0%" x2="100%" y2="100%">
      <stop offset="0%" stop-color="#31487A"/>
      <stop offset="100%" stop-color="#1E2E4F"/>
    </linearGradient>
    <filter id="psdmkShadow" x="-20%" y="-20%" width="140%" height="140%">
      <feDropShadow dx="0" dy="4" stdDeviation="4" flood-color="#000000" flood-opacity="0.25"/>
    </filter>
  </defs>
  <!-- Background Badge -->
  <rect x="8" y="8" width="104" height="104" rx="26" fill="url(#psdmkGrad)" filter="url(#psdmkShadow)"/>
  <rect x="8" y="8" width="104" height="104" rx="26" fill="none" stroke="#8FB3E2" stroke-width="1.5" stroke-opacity="0.5"/>
  
  <!-- People / Kaderisasi Symbol -->
  <g transform="translate(60, 50) scale(1.4)" stroke="#8FB3E2" stroke-width="2" fill="none" stroke-linecap="round" stroke-linejoin="round">
    <path d="M5 9v-2a4 4 0 0 0-4-4H-7a4 4 0 0 0-4 4v2"/>
    <circle cx="-3" cy="-3" r="4" fill="rgba(143, 179, 226, 0.2)"/>
    <path d="M11 9v-2a4 4 0 0 0-3-3.87"/>
    <path d="M4 -8.87a4 4 0 0 1 0 7.75"/>
  </g>
  
  <!-- Text Label -->
  <text x="60" y="98" font-family="'Poppins', sans-serif" font-size="12" font-weight="700" fill="#FFFFFF" text-anchor="middle" letter-spacing="1.2">PSDMK</text>
</svg>
